# MagicaVoxel @ Ephtracy

# group
o 

# material
mtllib slendersk1-0.mtl
usemtl palette

# normals
vn -1 0 0
vn 1 0 0
vn 0 0 1
vn 0 0 -1
vn 0 -1 0
vn 0 1 0

# texcoords
vt 0.537109 0.5
vt 0.861328 0.5
vt 0.865234 0.5
vt 0.869141 0.5
vt 0.962891 0.5
vt 0.994141 0.5

# verts
v -0.3 -0.3 0.3
v -0.3 -0.3 -0.6
v -0.3 -0.2 0.3
v -0.3 -0.2 0.1
v -0.3 -0.2 5.96046e-08
v -0.3 -0.2 -0.1
v -0.3 -0.2 -0.3
v -0.3 -0.2 -0.5
v -0.3 -0.2 -0.6
v -0.3 -0.1 -0.2
v -0.3 -0.1 -0.3
v -0.3 -0.1 -0.5
v -0.3 -0.1 -0.6
v -0.3 0 0.3
v -0.3 0 0.2
v -0.3 0 -0.1
v -0.3 0 -0.2
v -0.3 0.1 0.2
v -0.3 0.1 0.1
v -0.3 0.1 5.96046e-08
v -0.3 0.1 -0.1
v -0.3 0.1 -0.5
v -0.3 0.1 -0.6
v -0.3 0.2 -0.1
v -0.3 0.2 -0.5
v -0.2 -0.3 0.6
v -0.2 -0.3 0.3
v -0.2 -0.2 0.6
v -0.2 -0.2 0.3
v -0.2 -0.1 0.6
v -0.2 -0.1 0.4
v -0.2 0 0.4
v -0.2 0 0.3
v -0.2 0 0.2
v -0.2 0.1 0.4
v -0.2 0.1 0.3
v -0.2 0.1 0.2
v -0.2 0.1 0.1
v -0.2 0.1 5.96046e-08
v -0.2 0.1 -0.1
v -0.2 0.2 0.2
v -0.2 0.2 0.1
v -0.2 0.2 -0.1
v -0.2 0.2 -0.4
v -0.2 0.4 0.1
v -0.2 0.4 -0.4
v -0.1 -0.1 0.6
v -0.1 -0.1 0.4
v -0.1 0 0.6
v -0.1 0 0.4
v 0.1 -0.3 -0.3
v 0.1 -0.3 -0.6
v 0.1 -0.2 -0.3
v 0.1 -0.2 -0.5
v 0.1 -0.2 -0.6
v 0.1 -0.1 0.6
v 0.1 -0.1 0.2
v 0.1 -0.1 -0.5
v 0.1 -0.1 -0.6
v 0.1 0 0.6
v 0.1 0 0.4
v 0.1 0 0.3
v 0.1 0 0.2
v 0.1 0.1 0.4
v 0.1 0.1 0.3
v 0.1 0.1 0.2
v 0.1 0.1 0.1
v 0.1 0.1 -0.3
v 0.1 0.1 -0.4
v 0.1 0.1 -0.5
v 0.1 0.1 -0.6
v 0.1 0.2 0.2
v 0.1 0.2 0.1
v 0.1 0.2 -0.4
v 0.1 0.2 -0.5
v 0.1 0.4 0.1
v 0.1 0.4 -0.4
v 0.2 -0.3 0.6
v 0.2 -0.3 -0.3
v 0.2 -0.2 0.6
v 0.2 -0.2 -0.3
v 0.2 -0.1 0.6
v 0.2 -0.1 0.2
v 0.2 0.1 0.2
v 0.2 0.1 0.1
v 0.2 0.1 -0.3
v 0.2 0.1 -0.4
v 0.2 0.2 0.1
v 0.2 0.2 -0.4
v -0.2 -0.3 0.6
v -0.2 -0.2 0.6
v -0.2 -0.1 0.6
v -0.1 -0.1 0.6
v -0.1 0 0.6
v 0.1 -0.1 0.6
v 0.1 0 0.6
v 0.2 -0.3 0.6
v 0.2 -0.2 0.6
v 0.2 -0.1 0.6
v -0.2 -0.1 0.4
v -0.2 0 0.4
v -0.2 0.1 0.4
v -0.1 -0.1 0.4
v -0.1 0 0.4
v 0.1 0 0.4
v 0.1 0.1 0.4
v -0.3 -0.3 0.3
v -0.3 -0.2 0.3
v -0.3 0 0.3
v -0.2 -0.3 0.3
v -0.2 -0.2 0.3
v -0.2 0 0.3
v -0.3 0 0.2
v -0.3 0.1 0.2
v -0.2 0 0.2
v -0.2 0.1 0.2
v -0.2 0.2 0.2
v 0.1 -0.1 0.2
v 0.1 0 0.2
v 0.1 0.1 0.2
v 0.1 0.2 0.2
v 0.2 -0.1 0.2
v 0.2 0.1 0.2
v -0.2 0.2 0.1
v -0.2 0.4 0.1
v 0.1 0.1 0.1
v 0.1 0.2 0.1
v 0.1 0.4 0.1
v 0.2 0.1 0.1
v 0.2 0.2 0.1
v -0.3 0.1 -0.1
v -0.3 0.2 -0.1
v -0.2 0.1 -0.1
v -0.2 0.2 -0.1
v 0.1 -0.3 -0.3
v 0.1 -0.2 -0.3
v 0.1 0.1 -0.3
v 0.2 -0.3 -0.3
v 0.2 -0.2 -0.3
v 0.2 0.1 -0.3
v -0.2 0.2 -0.4
v -0.2 0.4 -0.4
v 0.1 0.1 -0.4
v 0.1 0.2 -0.4
v 0.1 0.4 -0.4
v 0.2 0.1 -0.4
v 0.2 0.2 -0.4
v -0.3 0.1 -0.5
v -0.3 0.2 -0.5
v 0.1 0.1 -0.5
v 0.1 0.2 -0.5
v -0.3 -0.3 -0.6
v -0.3 -0.2 -0.6
v -0.3 -0.1 -0.6
v -0.3 0.1 -0.6
v -0.2 -0.1 -0.6
v -0.2 0 -0.6
v 0 -0.1 -0.6
v 0 0 -0.6
v 0.1 -0.3 -0.6
v 0.1 -0.2 -0.6
v 0.1 -0.1 -0.6
v 0.1 0.1 -0.6
v -0.2 -0.3 0.6
v 0.2 -0.3 0.6
v -0.3 -0.3 0.3
v -0.2 -0.3 0.3
v 0.1 -0.3 -0.3
v 0.2 -0.3 -0.3
v -0.3 -0.3 -0.6
v 0.1 -0.3 -0.6
v 0.1 0.1 -0.3
v 0.2 0.1 -0.3
v 0.1 0.1 -0.4
v 0.2 0.1 -0.4
v -0.2 -0.1 0.6
v -0.1 -0.1 0.6
v 0.1 -0.1 0.6
v 0.2 -0.1 0.6
v -0.2 -0.1 0.4
v -0.1 -0.1 0.4
v 0.1 -0.1 0.2
v 0.2 -0.1 0.2
v -0.1 0 0.6
v 0.1 0 0.6
v -0.1 0 0.4
v 0.1 0 0.4
v -0.3 0 0.3
v -0.2 0 0.3
v -0.3 0 0.2
v -0.2 0 0.2
v -0.2 0.1 0.4
v 0.1 0.1 0.4
v -0.2 0.1 0.3
v 0.1 0.1 0.3
v -0.3 0.1 0.2
v -0.2 0.1 0.2
v 0.1 0.1 0.2
v 0.2 0.1 0.2
v -0.3 0.1 0.1
v -0.2 0.1 0.1
v 0.1 0.1 0.1
v 0.2 0.1 0.1
v -0.3 0.1 5.96046e-08
v -0.2 0.1 5.96046e-08
v -0.3 0.1 -0.1
v -0.2 0.1 -0.1
v -0.3 0.1 -0.5
v 0.1 0.1 -0.5
v -0.3 0.1 -0.6
v 0.1 0.1 -0.6
v -0.2 0.2 0.2
v 0.1 0.2 0.2
v -0.2 0.2 0.1
v 0.1 0.2 0.1
v 0.2 0.2 0.1
v -0.3 0.2 -0.1
v -0.2 0.2 -0.1
v -0.2 0.2 -0.4
v 0.1 0.2 -0.4
v 0.2 0.2 -0.4
v -0.3 0.2 -0.5
v 0.1 0.2 -0.5
v -0.2 0.4 0.1
v 0.1 0.4 0.1
v -0.2 0.4 -0.4
v 0.1 0.4 -0.4

# faces
f 3/1/1 2/1/1 1/1/1
f 4/1/1 2/1/1 3/1/1
f 5/1/1 2/1/1 4/1/1
f 6/1/1 2/1/1 5/1/1
f 7/1/1 2/1/1 6/1/1
f 8/1/1 2/1/1 7/1/1
f 9/1/1 2/1/1 8/1/1
f 10/3/1 7/3/1 6/3/1
f 11/5/1 8/5/1 7/5/1
f 11/3/1 7/3/1 10/3/1
f 12/2/1 9/2/1 8/2/1
f 12/5/1 8/5/1 11/5/1
f 13/2/1 9/2/1 12/2/1
f 14/5/1 4/5/1 3/5/1
f 15/5/1 4/5/1 14/5/1
f 16/5/1 6/5/1 5/5/1
f 16/3/1 10/3/1 6/3/1
f 17/5/1 11/5/1 10/5/1
f 17/3/1 10/3/1 16/3/1
f 17/5/1 12/5/1 11/5/1
f 17/5/1 13/5/1 12/5/1
f 18/5/1 4/5/1 15/5/1
f 19/3/1 5/3/1 4/3/1
f 19/5/1 4/5/1 18/5/1
f 20/5/1 17/5/1 16/5/1
f 20/3/1 5/3/1 19/3/1
f 20/5/1 16/5/1 5/5/1
f 21/5/1 17/5/1 20/5/1
f 22/5/1 13/5/1 17/5/1
f 22/5/1 17/5/1 21/5/1
f 23/5/1 13/5/1 22/5/1
f 24/4/1 22/4/1 21/4/1
f 25/4/1 22/4/1 24/4/1
f 28/1/1 27/1/1 26/1/1
f 29/1/1 27/1/1 28/1/1
f 30/5/1 29/5/1 28/5/1
f 31/5/1 29/5/1 30/5/1
f 32/5/1 29/5/1 31/5/1
f 33/5/1 29/5/1 32/5/1
f 35/4/1 33/4/1 32/4/1
f 36/5/1 34/5/1 33/5/1
f 36/4/1 33/4/1 35/4/1
f 37/5/1 34/5/1 36/5/1
f 41/5/1 38/5/1 37/5/1
f 42/4/1 40/4/1 39/4/1
f 42/5/1 38/5/1 41/5/1
f 42/4/1 39/4/1 38/4/1
f 43/4/1 40/4/1 42/4/1
f 45/6/1 44/6/1 43/6/1
f 45/6/1 43/6/1 42/6/1
f 46/6/1 44/6/1 45/6/1
f 49/4/1 48/4/1 47/4/1
f 50/4/1 48/4/1 49/4/1
f 51/1/2 52/1/2 53/1/2
f 53/1/2 52/1/2 54/1/2
f 54/1/2 52/1/2 55/1/2
f 53/5/2 54/5/2 58/5/2
f 54/2/2 55/2/2 58/2/2
f 58/2/2 55/2/2 59/2/2
f 56/4/2 57/4/2 60/4/2
f 60/4/2 57/4/2 61/4/2
f 61/4/2 57/4/2 62/4/2
f 62/4/2 57/4/2 63/4/2
f 61/4/2 62/4/2 64/4/2
f 62/5/2 63/5/2 65/5/2
f 64/4/2 62/4/2 65/4/2
f 65/5/2 63/5/2 66/5/2
f 53/5/2 58/5/2 68/5/2
f 58/5/2 59/5/2 68/5/2
f 68/5/2 59/5/2 69/5/2
f 69/5/2 59/5/2 70/5/2
f 70/5/2 59/5/2 71/5/2
f 66/5/2 67/5/2 72/5/2
f 72/5/2 67/5/2 73/5/2
f 69/4/2 70/4/2 74/4/2
f 74/4/2 70/4/2 75/4/2
f 73/6/2 74/6/2 76/6/2
f 76/6/2 74/6/2 77/6/2
f 78/1/2 79/1/2 80/1/2
f 80/1/2 79/1/2 81/1/2
f 80/5/2 81/5/2 82/5/2
f 82/5/2 81/5/2 83/5/2
f 83/5/2 81/5/2 84/5/2
f 84/5/2 81/5/2 85/5/2
f 85/5/2 81/5/2 86/5/2
f 85/4/2 86/4/2 88/4/2
f 86/4/2 87/4/2 88/4/2
f 88/4/2 87/4/2 89/4/2
f 93/5/3 92/5/3 91/5/3
f 95/5/3 93/5/3 91/5/3
f 95/4/3 94/4/3 93/4/3
f 96/4/3 94/4/3 95/4/3
f 97/1/3 91/1/3 90/1/3
f 98/5/3 95/5/3 91/5/3
f 98/1/3 91/1/3 97/1/3
f 99/5/3 95/5/3 98/5/3
f 103/5/3 101/5/3 100/5/3
f 104/4/3 102/4/3 101/4/3
f 104/5/3 101/5/3 103/5/3
f 105/4/3 102/4/3 104/4/3
f 106/4/3 102/4/3 105/4/3
f 110/1/3 108/1/3 107/1/3
f 111/5/3 109/5/3 108/5/3
f 111/1/3 108/1/3 110/1/3
f 112/5/3 109/5/3 111/5/3
f 115/5/3 114/5/3 113/5/3
f 116/5/3 114/5/3 115/5/3
f 120/5/3 117/5/3 116/5/3
f 121/5/3 117/5/3 120/5/3
f 122/5/3 119/5/3 118/5/3
f 122/5/3 120/5/3 119/5/3
f 123/5/3 120/5/3 122/5/3
f 127/6/3 125/6/3 124/6/3
f 128/6/3 125/6/3 127/6/3
f 129/4/3 127/4/3 126/4/3
f 130/4/3 127/4/3 129/4/3
f 133/4/3 132/4/3 131/4/3
f 134/4/3 132/4/3 133/4/3
f 135/1/4 136/1/4 138/1/4
f 136/5/4 137/5/4 139/5/4
f 138/1/4 136/1/4 139/1/4
f 139/5/4 137/5/4 140/5/4
f 141/6/4 142/6/4 144/6/4
f 144/6/4 142/6/4 145/6/4
f 143/4/4 144/4/4 146/4/4
f 146/4/4 144/4/4 147/4/4
f 148/4/4 149/4/4 150/4/4
f 150/4/4 149/4/4 151/4/4
f 153/2/4 154/2/4 156/2/4
f 154/5/4 155/5/4 156/5/4
f 156/5/4 155/5/4 157/5/4
f 153/2/4 156/2/4 158/2/4
f 156/2/4 157/2/4 158/2/4
f 157/5/4 155/5/4 159/5/4
f 158/2/4 157/2/4 159/2/4
f 152/1/4 153/1/4 160/1/4
f 153/2/4 158/2/4 161/2/4
f 160/1/4 153/1/4 161/1/4
f 158/5/4 159/5/4 162/5/4
f 161/2/4 158/2/4 162/2/4
f 159/5/4 155/5/4 163/5/4
f 162/5/4 159/5/4 163/5/4
f 167/1/5 165/1/5 164/1/5
f 168/1/5 165/1/5 167/1/5
f 168/1/5 167/1/5 166/1/5
f 169/1/5 165/1/5 168/1/5
f 170/1/5 168/1/5 166/1/5
f 171/1/5 168/1/5 170/1/5
f 174/4/5 173/4/5 172/4/5
f 175/4/5 173/4/5 174/4/5
f 176/5/6 177/5/6 180/5/6
f 180/5/6 177/5/6 181/5/6
f 178/5/6 179/5/6 182/5/6
f 182/5/6 179/5/6 183/5/6
f 184/4/6 185/4/6 186/4/6
f 186/4/6 185/4/6 187/4/6
f 188/5/6 189/5/6 190/5/6
f 190/5/6 189/5/6 191/5/6
f 192/4/6 193/4/6 194/4/6
f 194/4/6 193/4/6 195/4/6
f 194/5/6 195/5/6 197/5/6
f 197/5/6 195/5/6 198/5/6
f 196/5/6 197/5/6 200/5/6
f 200/5/6 197/5/6 201/5/6
f 198/5/6 199/5/6 202/5/6
f 202/5/6 199/5/6 203/5/6
f 200/3/6 201/3/6 204/3/6
f 204/3/6 201/3/6 205/3/6
f 204/5/6 205/5/6 206/5/6
f 206/5/6 205/5/6 207/5/6
f 208/5/6 209/5/6 210/5/6
f 210/5/6 209/5/6 211/5/6
f 212/5/6 213/5/6 214/5/6
f 214/5/6 213/5/6 215/5/6
f 217/4/6 218/4/6 219/4/6
f 215/4/6 216/4/6 220/4/6
f 220/4/6 216/4/6 221/4/6
f 217/4/6 219/4/6 222/4/6
f 219/4/6 220/4/6 222/4/6
f 222/4/6 220/4/6 223/4/6
f 224/6/6 225/6/6 226/6/6
f 226/6/6 225/6/6 227/6/6
