# MagicaVoxel @ Ephtracy

# group
o 

# material
mtllib photo.mtl
usemtl palette

# normals
vn -1 0 0
vn 1 0 0
vn 0 0 1
vn 0 0 -1
vn 0 -1 0
vn 0 1 0

# texcoords
vt 0.0332031 0.5
vt 0.0449219 0.5
vt 0.0957031 0.5
vt 0.119141 0.5
vt 0.396484 0.5
vt 0.642578 0.5
vt 0.732422 0.5
vt 0.958984 0.5
vt 0.962891 0.5
vt 0.994141 0.5

# verts
v -0.8 -0.1 0.8
v -0.8 -0.1 -0.8
v -0.8 0.2 0.8
v -0.8 0.2 -0.8
v 0.7 0.1 0.7
v 0.7 0.1 0.5
v 0.7 0.1 -0.1
v 0.7 0.1 -0.2
v 0.7 0.1 -0.4
v 0.7 0.1 -0.7
v 0.7 0.2 0.7
v 0.7 0.2 -0.7
v -0.7 0.1 0.7
v -0.7 0.1 0.5
v -0.7 0.1 0
v -0.7 0.1 -0.1
v -0.7 0.1 -0.7
v -0.7 0.2 0.7
v -0.7 0.2 -0.7
v 0.8 -0.1 0.8
v 0.8 -0.1 -0.8
v 0.8 0.2 0.8
v 0.8 0.2 -0.8
v -0.8 -0.1 0.8
v -0.8 0.2 0.8
v 0.8 -0.1 0.8
v 0.8 0.2 0.8
v -0.7 0.1 -0.7
v -0.7 0.2 -0.7
v 0.4 0.1 -0.7
v 0.7 0.1 -0.7
v 0.7 0.2 -0.7
v -0.7 0.1 0.7
v -0.7 0.2 0.7
v -0.5 0.1 0.7
v -0.3 0.1 0.7
v -0.1 0.1 0.7
v 0.1 0.1 0.7
v 0.3 0.1 0.7
v 0.5 0.1 0.7
v 0.7 0.1 0.7
v 0.7 0.2 0.7
v -0.8 -0.1 -0.8
v -0.8 0.2 -0.8
v 0.8 -0.1 -0.8
v 0.8 0.2 -0.8
v -0.8 -0.1 0.8
v 0.8 -0.1 0.8
v -0.8 -0.1 -0.8
v 0.8 -0.1 -0.8
v -0.7 0.1 0.7
v -0.5 0.1 0.7
v -0.3 0.1 0.7
v -0.1 0.1 0.7
v 0.1 0.1 0.7
v 0.3 0.1 0.7
v 0.5 0.1 0.7
v 0.7 0.1 0.7
v -0.4 0.1 0.6
v -0.3 0.1 0.6
v -0.1 0.1 0.6
v 0.1 0.1 0.6
v 0.3 0.1 0.6
v 0.4 0.1 0.6
v -0.7 0.1 0.5
v -0.5 0.1 0.5
v -0.4 0.1 0.5
v -0.3 0.1 0.5
v -0.1 0.1 0.5
v 0.1 0.1 0.5
v 0.3 0.1 0.5
v 0.4 0.1 0.5
v 0.5 0.1 0.5
v 0.7 0.1 0.5
v -0.1 0.1 0.4
v 0.1 0.1 0.4
v -0.5 0.1 0.3
v -0.4 0.1 0.3
v -0.3 0.1 0.3
v -0.2 0.1 0.3
v -0.1 0.1 0.3
v 0.1 0.1 0.3
v 0.2 0.1 0.3
v 0.3 0.1 0.3
v 0.4 0.1 0.3
v 0.5 0.1 0.3
v -0.3 0.1 0.2
v -0.2 0.1 0.2
v -0.1 0.1 0.2
v 0.1 0.1 0.2
v 0.2 0.1 0.2
v 0.3 0.1 0.2
v 0.5 0.1 0.2
v 0.6 0.1 0.2
v -0.3 0.1 0.1
v -0.1 0.1 0.1
v 0.1 0.1 0.1
v 0.3 0.1 0.1
v 0.5 0.1 0.1
v 0.6 0.1 0.1
v -0.7 0.1 0
v -0.6 0.1 0
v -0.2 0.1 0
v -0.1 0.1 0
v 0.1 0.1 0
v 0.2 0.1 0
v -0.7 0.1 -0.1
v -0.6 0.1 -0.1
v 0.5 0.1 -0.1
v 0.7 0.1 -0.1
v -0.3 0.1 -0.2
v -0.2 0.1 -0.2
v -0.1 0.1 -0.2
v 0.1 0.1 -0.2
v 0.2 0.1 -0.2
v 0.3 0.1 -0.2
v 0.5 0.1 -0.2
v 0.7 0.1 -0.2
v -0.2 0.1 -0.3
v 0.2 0.1 -0.3
v -0.4 0.1 -0.4
v -0.3 0.1 -0.4
v 0.3 0.1 -0.4
v 0.4 0.1 -0.4
v 0.6 0.1 -0.4
v 0.7 0.1 -0.4
v -0.6 0.1 -0.5
v -0.4 0.1 -0.5
v -0.3 0.1 -0.5
v 0.3 0.1 -0.5
v 0.4 0.1 -0.5
v 0.6 0.1 -0.5
v -0.6 0.1 -0.6
v -0.4 0.1 -0.6
v -0.7 0.1 -0.7
v 0.4 0.1 -0.7
v 0.7 0.1 -0.7
v -0.8 0.2 0.8
v 0.8 0.2 0.8
v -0.7 0.2 0.7
v 0.7 0.2 0.7
v -0.7 0.2 -0.7
v 0.7 0.2 -0.7
v -0.8 0.2 -0.8
v 0.8 0.2 -0.8

# faces
f 3/8/1 2/8/1 1/8/1
f 4/8/1 2/8/1 3/8/1
f 11/8/1 6/8/1 5/8/1
f 11/8/1 10/8/1 9/8/1
f 11/8/1 9/8/1 8/8/1
f 11/8/1 8/8/1 7/8/1
f 11/8/1 7/8/1 6/8/1
f 12/8/1 10/8/1 11/8/1
f 13/8/2 14/8/2 18/8/2
f 16/8/2 17/8/2 18/8/2
f 15/8/2 16/8/2 18/8/2
f 14/8/2 15/8/2 18/8/2
f 18/8/2 17/8/2 19/8/2
f 20/8/2 21/8/2 22/8/2
f 22/8/2 21/8/2 23/8/2
f 26/8/3 25/8/3 24/8/3
f 27/8/3 25/8/3 26/8/3
f 30/8/3 29/8/3 28/8/3
f 31/8/3 29/8/3 30/8/3
f 32/8/3 29/8/3 31/8/3
f 33/8/4 34/8/4 35/8/4
f 35/8/4 34/8/4 36/8/4
f 36/8/4 34/8/4 37/8/4
f 37/8/4 34/8/4 38/8/4
f 38/8/4 34/8/4 39/8/4
f 39/8/4 34/8/4 40/8/4
f 40/8/4 34/8/4 41/8/4
f 41/8/4 34/8/4 42/8/4
f 43/8/4 44/8/4 45/8/4
f 45/8/4 44/8/4 46/8/4
f 49/8/5 48/8/5 47/8/5
f 50/8/5 48/8/5 49/8/5
f 52/1/6 53/1/6 59/1/6
f 53/4/6 54/4/6 60/4/6
f 59/1/6 53/1/6 60/1/6
f 54/3/6 55/3/6 61/3/6
f 60/4/6 54/4/6 61/4/6
f 55/4/6 56/4/6 62/4/6
f 61/3/6 55/3/6 62/3/6
f 56/1/6 57/1/6 63/1/6
f 62/4/6 56/4/6 63/4/6
f 63/1/6 57/1/6 64/1/6
f 51/6/6 52/6/6 65/6/6
f 52/1/6 59/1/6 66/1/6
f 65/6/6 52/6/6 66/6/6
f 59/4/6 60/4/6 67/4/6
f 66/1/6 59/1/6 67/1/6
f 60/3/6 61/3/6 68/3/6
f 67/4/6 60/4/6 68/4/6
f 61/4/6 62/4/6 69/4/6
f 68/3/6 61/3/6 69/3/6
f 62/3/6 63/3/6 70/3/6
f 69/4/6 62/4/6 70/4/6
f 63/4/6 64/4/6 71/4/6
f 70/3/6 63/3/6 71/3/6
f 64/1/6 57/1/6 72/1/6
f 71/4/6 64/4/6 72/4/6
f 57/6/6 58/6/6 73/6/6
f 72/1/6 57/1/6 73/1/6
f 73/6/6 58/6/6 74/6/6
f 70/3/6 71/3/6 75/3/6
f 71/3/6 72/3/6 75/3/6
f 66/3/6 67/3/6 75/3/6
f 72/3/6 73/3/6 75/3/6
f 69/3/6 70/3/6 75/3/6
f 68/3/6 69/3/6 75/3/6
f 67/3/6 68/3/6 75/3/6
f 75/3/6 73/3/6 76/3/6
f 65/7/6 66/7/6 77/7/6
f 66/3/6 75/3/6 77/3/6
f 77/3/6 75/3/6 78/3/6
f 78/3/6 75/3/6 79/3/6
f 79/3/6 75/3/6 80/3/6
f 75/1/6 76/1/6 81/1/6
f 80/3/6 75/3/6 81/3/6
f 76/3/6 73/3/6 82/3/6
f 81/1/6 76/1/6 82/1/6
f 82/3/6 73/3/6 83/3/6
f 83/3/6 73/3/6 84/3/6
f 84/3/6 73/3/6 85/3/6
f 73/7/6 74/7/6 86/7/6
f 85/3/6 73/3/6 86/3/6
f 79/3/6 80/3/6 87/3/6
f 78/5/6 79/5/6 87/5/6
f 80/1/6 81/1/6 88/1/6
f 87/3/6 80/3/6 88/3/6
f 81/1/6 82/1/6 88/1/6
f 82/1/6 83/1/6 88/1/6
f 88/1/6 83/1/6 89/1/6
f 89/1/6 83/1/6 90/1/6
f 83/3/6 84/3/6 91/3/6
f 90/1/6 83/1/6 91/1/6
f 84/5/6 85/5/6 92/5/6
f 91/3/6 84/3/6 92/3/6
f 86/7/6 74/7/6 93/7/6
f 85/7/6 86/7/6 93/7/6
f 93/7/6 74/7/6 94/7/6
f 78/5/6 87/5/6 95/5/6
f 87/5/6 88/5/6 95/5/6
f 88/5/6 89/5/6 95/5/6
f 89/1/6 90/1/6 96/1/6
f 95/5/6 89/5/6 96/5/6
f 90/5/6 91/5/6 97/5/6
f 96/1/6 90/1/6 97/1/6
f 91/5/6 92/5/6 97/5/6
f 92/5/6 85/5/6 98/5/6
f 97/5/6 92/5/6 98/5/6
f 85/7/6 93/7/6 99/7/6
f 93/9/6 94/9/6 99/9/6
f 94/7/6 74/7/6 100/7/6
f 99/9/6 94/9/6 100/9/6
f 65/7/6 77/7/6 101/7/6
f 77/7/6 78/7/6 101/7/6
f 101/7/6 78/7/6 102/7/6
f 95/1/6 96/1/6 103/1/6
f 96/1/6 97/1/6 103/1/6
f 97/1/6 98/1/6 103/1/6
f 103/1/6 98/1/6 104/1/6
f 104/1/6 98/1/6 105/1/6
f 105/1/6 98/1/6 106/1/6
f 101/9/6 102/9/6 107/9/6
f 102/7/6 78/7/6 108/7/6
f 107/9/6 102/9/6 108/9/6
f 85/7/6 99/7/6 109/7/6
f 99/7/6 100/7/6 109/7/6
f 100/7/6 74/7/6 110/7/6
f 109/7/6 100/7/6 110/7/6
f 78/5/6 95/5/6 111/5/6
f 95/1/6 103/1/6 111/1/6
f 103/10/6 104/10/6 112/10/6
f 111/1/6 103/1/6 112/1/6
f 104/1/6 105/1/6 113/1/6
f 112/10/6 104/10/6 113/10/6
f 105/10/6 106/10/6 114/10/6
f 113/1/6 105/1/6 114/1/6
f 106/1/6 98/1/6 115/1/6
f 114/10/6 106/10/6 115/10/6
f 98/5/6 85/5/6 116/5/6
f 115/1/6 98/1/6 116/1/6
f 85/7/6 109/7/6 117/7/6
f 109/9/6 110/9/6 117/9/6
f 117/9/6 110/9/6 118/9/6
f 113/1/6 114/1/6 119/1/6
f 114/1/6 115/1/6 119/1/6
f 111/5/6 112/5/6 119/5/6
f 112/1/6 113/1/6 119/1/6
f 115/5/6 116/5/6 120/5/6
f 119/1/6 115/1/6 120/1/6
f 108/7/6 78/7/6 121/7/6
f 107/7/6 108/7/6 121/7/6
f 119/5/6 120/5/6 121/5/6
f 111/5/6 119/5/6 121/5/6
f 78/5/6 111/5/6 121/5/6
f 121/5/6 120/5/6 122/5/6
f 120/5/6 116/5/6 123/5/6
f 122/5/6 120/5/6 123/5/6
f 116/5/6 85/5/6 123/5/6
f 85/7/6 117/7/6 124/7/6
f 123/5/6 85/5/6 124/5/6
f 117/7/6 118/7/6 124/7/6
f 124/7/6 118/7/6 125/7/6
f 125/7/6 118/7/6 126/7/6
f 121/7/6 122/7/6 127/7/6
f 107/7/6 121/7/6 127/7/6
f 127/7/6 122/7/6 128/7/6
f 122/5/6 123/5/6 129/5/6
f 128/7/6 122/7/6 129/7/6
f 123/7/6 124/7/6 130/7/6
f 129/5/6 123/5/6 130/5/6
f 124/7/6 125/7/6 130/7/6
f 130/7/6 125/7/6 131/7/6
f 125/2/6 126/2/6 132/2/6
f 131/7/6 125/7/6 132/7/6
f 127/9/6 128/9/6 133/9/6
f 107/7/6 127/7/6 133/7/6
f 130/7/6 131/7/6 134/7/6
f 133/9/6 128/9/6 134/9/6
f 128/7/6 129/7/6 134/7/6
f 129/7/6 130/7/6 134/7/6
f 107/7/6 133/7/6 135/7/6
f 133/7/6 134/7/6 135/7/6
f 134/7/6 131/7/6 136/7/6
f 135/7/6 134/7/6 136/7/6
f 131/2/6 132/2/6 136/2/6
f 132/2/6 126/2/6 137/2/6
f 136/2/6 132/2/6 137/2/6
f 138/8/6 139/8/6 140/8/6
f 140/8/6 139/8/6 141/8/6
f 138/8/6 140/8/6 142/8/6
f 141/8/6 139/8/6 143/8/6
f 138/8/6 142/8/6 144/8/6
f 142/8/6 143/8/6 144/8/6
f 143/8/6 139/8/6 145/8/6
f 144/8/6 143/8/6 145/8/6
