# MagicaVoxel @ Ephtracy

# group
o 

# material
mtllib slenderch-19.mtl
usemtl palette

# normals
vn -1 0 0
vn 1 0 0
vn 0 0 1
vn 0 0 -1
vn 0 -1 0
vn 0 1 0

# texcoords
vt 0.642578 0.5
vt 0.958984 0.5
vt 0.978516 0.5
vt 0.994141 0.5

# verts
v -0.9 0.4 -0.5
v -0.9 0.4 -0.8
v -0.9 0.6 -0.5
v -0.9 0.6 -0.8
v -0.8 0.1 0.1
v -0.8 0.1 -0.4
v -0.8 0.2 -0.4
v -0.8 0.2 -0.7
v -0.8 0.4 -0.5
v -0.8 0.4 -0.7
v -0.8 0.6 0.1
v -0.8 0.6 -0.4
v -0.8 0.6 -0.5
v -0.7 -0.5 0.2
v -0.7 -0.5 -0.6
v -0.7 0.1 0.1
v -0.7 0.1 -0.4
v -0.7 0.2 -0.4
v -0.7 0.2 -0.6
v -0.7 0.5 0.2
v -0.7 0.5 0.1
v -0.6 -0.5 0.4
v -0.6 -0.5 0.2
v -0.6 0.4 0.4
v -0.6 0.4 0.3
v -0.6 0.5 0.3
v -0.6 0.5 0.2
v -0.5 0.4 0.4
v -0.5 0.4 0.3
v -0.5 0.5 0.4
v -0.5 0.5 0.3
v -0.4 0.5 0.3
v -0.4 0.5 0.1
v -0.4 0.5 -0.4
v -0.4 0.5 -0.5
v -0.4 0.6 0.3
v -0.4 0.6 0.1
v -0.4 0.6 -0.4
v -0.4 0.6 -0.5
v -0.3 0.5 0.5
v -0.3 0.5 0.4
v -0.3 0.5 0.3
v -0.3 0.6 0.5
v -0.3 0.6 0.3
v -0.2 0.4 -0.5
v -0.2 0.4 -0.6
v -0.2 0.5 0.6
v -0.2 0.5 0.5
v -0.2 0.6 0.6
v -0.2 0.6 0.5
v -0.2 0.6 -0.5
v -0.2 0.6 -0.6
v -0.1 -0.5 0.6
v -0.1 -0.5 0.4
v -0.1 -0.5 -0.6
v -0.1 -0.5 -0.7
v -0.1 0.5 0.6
v -0.1 0.5 0.4
v -0.1 0.6 -0.6
v -0.1 0.6 -0.7
v 0.5 0.2 -0.6
v 0.5 0.2 -0.7
v 0.5 0.4 -0.5
v 0.5 0.4 -0.6
v 0.5 0.5 -0.4
v 0.5 0.5 -0.5
v 0.5 0.6 -0.4
v 0.5 0.6 -0.7
v 0.7 0.4 -0.7
v 0.7 0.4 -0.8
v 0.7 0.6 -0.7
v 0.7 0.6 -0.8
v -0.7 0.4 -0.7
v -0.7 0.4 -0.8
v -0.7 0.6 -0.7
v -0.7 0.6 -0.8
v -0.5 0.2 -0.6
v -0.5 0.2 -0.7
v -0.5 0.4 -0.5
v -0.5 0.4 -0.6
v -0.5 0.5 -0.4
v -0.5 0.5 -0.5
v -0.5 0.6 -0.4
v -0.5 0.6 -0.7
v 0.1 -0.5 0.6
v 0.1 -0.5 0.4
v 0.1 -0.5 -0.6
v 0.1 -0.5 -0.7
v 0.1 0.5 0.6
v 0.1 0.5 0.4
v 0.1 0.6 -0.6
v 0.1 0.6 -0.7
v 0.2 0.4 -0.5
v 0.2 0.4 -0.6
v 0.2 0.5 0.6
v 0.2 0.5 0.5
v 0.2 0.6 0.6
v 0.2 0.6 0.5
v 0.2 0.6 -0.5
v 0.2 0.6 -0.6
v 0.3 0.5 0.5
v 0.3 0.5 0.4
v 0.3 0.5 0.3
v 0.3 0.6 0.5
v 0.3 0.6 0.3
v 0.4 0.5 0.3
v 0.4 0.5 0.1
v 0.4 0.5 -0.4
v 0.4 0.5 -0.5
v 0.4 0.6 0.3
v 0.4 0.6 0.1
v 0.4 0.6 -0.4
v 0.4 0.6 -0.5
v 0.5 0.4 0.4
v 0.5 0.4 0.3
v 0.5 0.5 0.4
v 0.5 0.5 0.3
v 0.6 -0.5 0.4
v 0.6 -0.5 0.2
v 0.6 0.4 0.4
v 0.6 0.4 0.3
v 0.6 0.5 0.3
v 0.6 0.5 0.2
v 0.7 -0.5 0.2
v 0.7 -0.5 -0.6
v 0.7 0.1 0.1
v 0.7 0.1 -0.4
v 0.7 0.2 -0.4
v 0.7 0.2 -0.6
v 0.7 0.5 0.2
v 0.7 0.5 0.1
v 0.8 0.1 0.1
v 0.8 0.1 -0.4
v 0.8 0.2 -0.4
v 0.8 0.2 -0.7
v 0.8 0.4 -0.5
v 0.8 0.4 -0.7
v 0.8 0.6 0.1
v 0.8 0.6 -0.4
v 0.8 0.6 -0.5
v 0.9 0.4 -0.5
v 0.9 0.4 -0.8
v 0.9 0.6 -0.5
v 0.9 0.6 -0.8
v -0.2 0.5 0.6
v -0.2 0.6 0.6
v -0.1 -0.5 0.6
v -0.1 0.5 0.6
v -0.1 0.6 0.6
v 0.1 -0.5 0.6
v 0.1 0.5 0.6
v 0.1 0.6 0.6
v 0.2 0.5 0.6
v 0.2 0.6 0.6
v -0.3 0.5 0.5
v -0.3 0.6 0.5
v -0.2 0.5 0.5
v -0.2 0.6 0.5
v 0.2 0.5 0.5
v 0.2 0.6 0.5
v 0.3 0.5 0.5
v 0.3 0.6 0.5
v -0.6 -0.5 0.4
v -0.6 0.4 0.4
v -0.5 0.4 0.4
v -0.5 0.5 0.4
v -0.3 0.5 0.4
v -0.1 -0.5 0.4
v -0.1 0.5 0.4
v 0.1 -0.5 0.4
v 0.1 0.5 0.4
v 0.3 0.5 0.4
v 0.5 0.4 0.4
v 0.5 0.5 0.4
v 0.6 -0.5 0.4
v 0.6 0.4 0.4
v -0.6 0.4 0.3
v -0.6 0.5 0.3
v -0.5 0.4 0.3
v -0.5 0.5 0.3
v -0.4 0.5 0.3
v -0.4 0.6 0.3
v -0.3 0.5 0.3
v -0.3 0.6 0.3
v 0.3 0.5 0.3
v 0.3 0.6 0.3
v 0.4 0.5 0.3
v 0.4 0.6 0.3
v 0.5 0.4 0.3
v 0.5 0.5 0.3
v 0.6 0.4 0.3
v 0.6 0.5 0.3
v -0.7 -0.5 0.2
v -0.7 0.5 0.2
v -0.6 -0.5 0.2
v -0.6 0.5 0.2
v 0.6 -0.5 0.2
v 0.6 0.5 0.2
v 0.7 -0.5 0.2
v 0.7 0.5 0.2
v -0.8 0.1 0.1
v -0.8 0.6 0.1
v -0.7 0.1 0.1
v -0.7 0.5 0.1
v -0.4 0.5 0.1
v -0.4 0.6 0.1
v 0.4 0.5 0.1
v 0.4 0.6 0.1
v 0.7 0.1 0.1
v 0.7 0.5 0.1
v 0.8 0.1 0.1
v 0.8 0.6 0.1
v -0.9 0.4 -0.5
v -0.9 0.6 -0.5
v -0.8 0.4 -0.5
v -0.8 0.6 -0.5
v 0.8 0.4 -0.5
v 0.8 0.6 -0.5
v 0.9 0.4 -0.5
v 0.9 0.6 -0.5
v -0.8 0.1 -0.4
v -0.8 0.2 -0.4
v -0.7 0.1 -0.4
v -0.7 0.2 -0.4
v -0.5 0.5 -0.4
v -0.5 0.6 -0.4
v -0.4 0.5 -0.4
v -0.4 0.6 -0.4
v 0.4 0.5 -0.4
v 0.4 0.6 -0.4
v 0.5 0.5 -0.4
v 0.5 0.6 -0.4
v 0.7 0.1 -0.4
v 0.7 0.2 -0.4
v 0.8 0.1 -0.4
v 0.8 0.2 -0.4
v -0.5 0.4 -0.5
v -0.5 0.5 -0.5
v -0.4 0.5 -0.5
v -0.4 0.6 -0.5
v -0.2 0.4 -0.5
v -0.2 0.6 -0.5
v 0.2 0.4 -0.5
v 0.2 0.6 -0.5
v 0.4 0.5 -0.5
v 0.4 0.6 -0.5
v 0.5 0.4 -0.5
v 0.5 0.5 -0.5
v -0.7 -0.5 -0.6
v -0.7 0.2 -0.6
v -0.5 0.2 -0.6
v -0.5 0.4 -0.6
v -0.2 0.4 -0.6
v -0.2 0.6 -0.6
v -0.1 -0.5 -0.6
v -0.1 0.6 -0.6
v 0.1 -0.5 -0.6
v 0.1 0.6 -0.6
v 0.2 0.4 -0.6
v 0.2 0.6 -0.6
v 0.5 0.2 -0.6
v 0.5 0.4 -0.6
v 0.7 -0.5 -0.6
v 0.7 0.2 -0.6
v -0.8 0.2 -0.7
v -0.8 0.4 -0.7
v -0.7 0.4 -0.7
v -0.7 0.6 -0.7
v -0.5 0.2 -0.7
v -0.5 0.6 -0.7
v -0.1 -0.5 -0.7
v -0.1 0.6 -0.7
v 0.1 -0.5 -0.7
v 0.1 0.6 -0.7
v 0.5 0.2 -0.7
v 0.5 0.6 -0.7
v 0.7 0.4 -0.7
v 0.7 0.6 -0.7
v 0.8 0.2 -0.7
v 0.8 0.4 -0.7
v -0.9 0.4 -0.8
v -0.9 0.6 -0.8
v -0.7 0.4 -0.8
v -0.7 0.6 -0.8
v 0.7 0.4 -0.8
v 0.7 0.6 -0.8
v 0.9 0.4 -0.8
v 0.9 0.6 -0.8
v -0.1 -0.5 0.6
v 0.1 -0.5 0.6
v -0.6 -0.5 0.4
v -0.1 -0.5 0.4
v 0.1 -0.5 0.4
v 0.6 -0.5 0.4
v -0.2 -0.5 0.3
v 0.2 -0.5 0.3
v -0.7 -0.5 0.2
v -0.6 -0.5 0.2
v 0.6 -0.5 0.2
v 0.7 -0.5 0.2
v -0.2 -0.5 5.96046e-08
v -0.1 -0.5 5.96046e-08
v 0.1 -0.5 5.96046e-08
v 0.2 -0.5 5.96046e-08
v -0.1 -0.5 -0.1
v 0.1 -0.5 -0.1
v -0.7 -0.5 -0.6
v -0.1 -0.5 -0.6
v 0.1 -0.5 -0.6
v 0.7 -0.5 -0.6
v -0.1 -0.5 -0.7
v 0.1 -0.5 -0.7
v -0.8 0.1 0.1
v -0.7 0.1 0.1
v 0.7 0.1 0.1
v 0.8 0.1 0.1
v -0.8 0.1 -0.4
v -0.7 0.1 -0.4
v 0.7 0.1 -0.4
v 0.8 0.1 -0.4
v -0.8 0.2 -0.4
v -0.7 0.2 -0.4
v 0.7 0.2 -0.4
v 0.8 0.2 -0.4
v -0.7 0.2 -0.6
v -0.5 0.2 -0.6
v 0.5 0.2 -0.6
v 0.7 0.2 -0.6
v -0.8 0.2 -0.7
v -0.5 0.2 -0.7
v 0.5 0.2 -0.7
v 0.8 0.2 -0.7
v -0.9 0.4 -0.5
v -0.8 0.4 -0.5
v 0.8 0.4 -0.5
v 0.9 0.4 -0.5
v -0.8 0.4 -0.7
v -0.7 0.4 -0.7
v 0.7 0.4 -0.7
v 0.8 0.4 -0.7
v -0.9 0.4 -0.8
v -0.7 0.4 -0.8
v 0.7 0.4 -0.8
v 0.9 0.4 -0.8
v -0.2 0.5 0.6
v -0.1 0.5 0.6
v 0.1 0.5 0.6
v 0.2 0.5 0.6
v -0.3 0.5 0.5
v -0.2 0.5 0.5
v 0.2 0.5 0.5
v 0.3 0.5 0.5
v -0.3 0.5 0.4
v -0.1 0.5 0.4
v 0.1 0.5 0.4
v 0.3 0.5 0.4
v -0.6 0.4 0.4
v -0.5 0.4 0.4
v 0.5 0.4 0.4
v 0.6 0.4 0.4
v -0.6 0.4 0.3
v -0.5 0.4 0.3
v 0.5 0.4 0.3
v 0.6 0.4 0.3
v -0.5 0.4 -0.5
v -0.2 0.4 -0.5
v 0.2 0.4 -0.5
v 0.5 0.4 -0.5
v -0.5 0.4 -0.6
v -0.2 0.4 -0.6
v 0.2 0.4 -0.6
v 0.5 0.4 -0.6
v -0.5 0.5 0.4
v -0.3 0.5 0.4
v 0.3 0.5 0.4
v 0.5 0.5 0.4
v -0.6 0.5 0.3
v -0.5 0.5 0.3
v -0.4 0.5 0.3
v -0.3 0.5 0.3
v 0.3 0.5 0.3
v 0.4 0.5 0.3
v 0.5 0.5 0.3
v 0.6 0.5 0.3
v -0.7 0.5 0.2
v -0.6 0.5 0.2
v 0.6 0.5 0.2
v 0.7 0.5 0.2
v -0.7 0.5 0.1
v -0.4 0.5 0.1
v 0.4 0.5 0.1
v 0.7 0.5 0.1
v -0.5 0.5 -0.4
v -0.4 0.5 -0.4
v 0.4 0.5 -0.4
v 0.5 0.5 -0.4
v -0.5 0.5 -0.5
v -0.4 0.5 -0.5
v 0.4 0.5 -0.5
v 0.5 0.5 -0.5
v -0.2 0.6 0.6
v -0.1 0.6 0.6
v 0.1 0.6 0.6
v 0.2 0.6 0.6
v -0.3 0.6 0.5
v -0.2 0.6 0.5
v -0.1 0.6 0.5
v 0.1 0.6 0.5
v 0.2 0.6 0.5
v 0.3 0.6 0.5
v -0.4 0.6 0.3
v -0.3 0.6 0.3
v -0.2 0.6 0.3
v 0.2 0.6 0.3
v 0.3 0.6 0.3
v 0.4 0.6 0.3
v -0.8 0.6 0.1
v -0.4 0.6 0.1
v 0.4 0.6 0.1
v 0.8 0.6 0.1
v -0.2 0.6 5.96046e-08
v -0.1 0.6 5.96046e-08
v 0.1 0.6 5.96046e-08
v 0.2 0.6 5.96046e-08
v -0.1 0.6 -0.1
v 0.1 0.6 -0.1
v -0.8 0.6 -0.4
v -0.5 0.6 -0.4
v -0.4 0.6 -0.4
v 0.4 0.6 -0.4
v 0.5 0.6 -0.4
v 0.8 0.6 -0.4
v -0.9 0.6 -0.5
v -0.8 0.6 -0.5
v -0.4 0.6 -0.5
v -0.2 0.6 -0.5
v 0.2 0.6 -0.5
v 0.4 0.6 -0.5
v 0.8 0.6 -0.5
v 0.9 0.6 -0.5
v -0.2 0.6 -0.6
v -0.1 0.6 -0.6
v 0.1 0.6 -0.6
v 0.2 0.6 -0.6
v -0.7 0.6 -0.7
v -0.5 0.6 -0.7
v -0.1 0.6 -0.7
v 0.1 0.6 -0.7
v 0.5 0.6 -0.7
v 0.7 0.6 -0.7
v -0.9 0.6 -0.8
v -0.7 0.6 -0.8
v 0.7 0.6 -0.8
v 0.9 0.6 -0.8

# faces
f 3/4/1 2/4/1 1/4/1
f 4/4/1 2/4/1 3/4/1
f 7/1/1 6/1/1 5/1/1
f 9/4/1 8/4/1 7/4/1
f 10/4/1 8/4/1 9/4/1
f 11/1/1 7/1/1 5/1/1
f 12/4/1 9/4/1 7/4/1
f 12/1/1 7/1/1 11/1/1
f 13/4/1 9/4/1 12/4/1
f 16/1/1 15/1/1 14/1/1
f 17/1/1 15/1/1 16/1/1
f 18/1/1 15/1/1 17/1/1
f 19/1/1 15/1/1 18/1/1
f 20/1/1 16/1/1 14/1/1
f 21/1/1 16/1/1 20/1/1
f 24/1/1 23/1/1 22/1/1
f 25/1/1 23/1/1 24/1/1
f 26/1/1 23/1/1 25/1/1
f 27/1/1 23/1/1 26/1/1
f 30/1/1 29/1/1 28/1/1
f 31/1/1 29/1/1 30/1/1
f 36/1/1 33/1/1 32/1/1
f 37/1/1 33/1/1 36/1/1
f 38/1/1 35/1/1 34/1/1
f 39/1/1 35/1/1 38/1/1
f 43/1/1 41/1/1 40/1/1
f 43/1/1 42/1/1 41/1/1
f 44/1/1 42/1/1 43/1/1
f 49/1/1 48/1/1 47/1/1
f 50/1/1 48/1/1 49/1/1
f 51/1/1 46/1/1 45/1/1
f 52/1/1 46/1/1 51/1/1
f 57/3/1 54/3/1 53/3/1
f 58/3/1 54/3/1 57/3/1
f 59/1/1 56/1/1 55/1/1
f 60/1/1 56/1/1 59/1/1
f 64/4/1 62/4/1 61/4/1
f 66/4/1 64/4/1 63/4/1
f 67/4/1 66/4/1 65/4/1
f 68/4/1 62/4/1 64/4/1
f 68/4/1 66/4/1 67/4/1
f 68/4/1 64/4/1 66/4/1
f 71/4/1 70/4/1 69/4/1
f 72/4/1 70/4/1 71/4/1
f 73/4/2 74/4/2 75/4/2
f 75/4/2 74/4/2 76/4/2
f 77/4/2 78/4/2 80/4/2
f 79/4/2 80/4/2 82/4/2
f 81/4/2 82/4/2 83/4/2
f 80/4/2 78/4/2 84/4/2
f 83/4/2 82/4/2 84/4/2
f 82/4/2 80/4/2 84/4/2
f 85/3/2 86/3/2 89/3/2
f 89/3/2 86/3/2 90/3/2
f 87/1/2 88/1/2 91/1/2
f 91/1/2 88/1/2 92/1/2
f 95/1/2 96/1/2 97/1/2
f 97/1/2 96/1/2 98/1/2
f 93/1/2 94/1/2 99/1/2
f 99/1/2 94/1/2 100/1/2
f 101/1/2 102/1/2 104/1/2
f 102/1/2 103/1/2 104/1/2
f 104/1/2 103/1/2 105/1/2
f 106/1/2 107/1/2 110/1/2
f 110/1/2 107/1/2 111/1/2
f 108/1/2 109/1/2 112/1/2
f 112/1/2 109/1/2 113/1/2
f 114/1/2 115/1/2 116/1/2
f 116/1/2 115/1/2 117/1/2
f 118/1/2 119/1/2 120/1/2
f 120/1/2 119/1/2 121/1/2
f 121/1/2 119/1/2 122/1/2
f 122/1/2 119/1/2 123/1/2
f 124/1/2 125/1/2 126/1/2
f 126/1/2 125/1/2 127/1/2
f 127/1/2 125/1/2 128/1/2
f 128/1/2 125/1/2 129/1/2
f 124/1/2 126/1/2 130/1/2
f 130/1/2 126/1/2 131/1/2
f 132/1/2 133/1/2 134/1/2
f 134/4/2 135/4/2 136/4/2
f 136/4/2 135/4/2 137/4/2
f 132/1/2 134/1/2 138/1/2
f 134/4/2 136/4/2 139/4/2
f 138/1/2 134/1/2 139/1/2
f 139/4/2 136/4/2 140/4/2
f 141/4/2 142/4/2 143/4/2
f 143/4/2 142/4/2 144/4/2
f 148/1/3 146/1/3 145/1/3
f 149/1/3 146/1/3 148/1/3
f 150/3/3 148/3/3 147/3/3
f 150/3/3 149/3/3 148/3/3
f 151/3/3 149/3/3 150/3/3
f 152/3/3 149/3/3 151/3/3
f 153/1/3 152/1/3 151/1/3
f 154/1/3 152/1/3 153/1/3
f 157/1/3 156/1/3 155/1/3
f 158/1/3 156/1/3 157/1/3
f 161/1/3 160/1/3 159/1/3
f 162/1/3 160/1/3 161/1/3
f 165/1/3 164/1/3 163/1/3
f 167/1/3 166/1/3 165/1/3
f 168/1/3 165/1/3 163/1/3
f 168/1/3 167/1/3 165/1/3
f 169/1/3 167/1/3 168/1/3
f 172/1/3 171/1/3 170/1/3
f 173/1/3 172/1/3 170/1/3
f 174/1/3 172/1/3 173/1/3
f 175/1/3 173/1/3 170/1/3
f 176/1/3 173/1/3 175/1/3
f 179/1/3 178/1/3 177/1/3
f 180/1/3 178/1/3 179/1/3
f 183/1/3 182/1/3 181/1/3
f 184/1/3 182/1/3 183/1/3
f 187/1/3 186/1/3 185/1/3
f 188/1/3 186/1/3 187/1/3
f 191/1/3 190/1/3 189/1/3
f 192/1/3 190/1/3 191/1/3
f 195/1/3 194/1/3 193/1/3
f 196/1/3 194/1/3 195/1/3
f 199/1/3 198/1/3 197/1/3
f 200/1/3 198/1/3 199/1/3
f 203/1/3 202/1/3 201/1/3
f 204/1/3 202/1/3 203/1/3
f 205/1/3 202/1/3 204/1/3
f 206/1/3 202/1/3 205/1/3
f 210/1/3 208/1/3 207/1/3
f 211/1/3 210/1/3 209/1/3
f 212/1/3 208/1/3 210/1/3
f 212/1/3 210/1/3 211/1/3
f 215/4/3 214/4/3 213/4/3
f 216/4/3 214/4/3 215/4/3
f 219/4/3 218/4/3 217/4/3
f 220/4/3 218/4/3 219/4/3
f 221/1/4 222/1/4 223/1/4
f 223/1/4 222/1/4 224/1/4
f 225/1/4 226/1/4 227/1/4
f 227/1/4 226/1/4 228/1/4
f 229/1/4 230/1/4 231/1/4
f 231/1/4 230/1/4 232/1/4
f 233/1/4 234/1/4 235/1/4
f 235/1/4 234/1/4 236/1/4
f 237/1/4 238/1/4 239/1/4
f 237/1/4 239/1/4 241/1/4
f 239/1/4 240/1/4 241/1/4
f 241/1/4 240/1/4 242/1/4
f 243/1/4 244/1/4 245/1/4
f 245/1/4 244/1/4 246/1/4
f 243/1/4 245/1/4 247/1/4
f 247/1/4 245/1/4 248/1/4
f 249/1/4 250/1/4 251/1/4
f 251/1/4 252/1/4 253/1/4
f 249/1/4 251/1/4 255/1/4
f 253/1/4 254/1/4 255/1/4
f 251/1/4 253/1/4 255/1/4
f 255/1/4 254/1/4 256/1/4
f 257/1/4 258/1/4 259/1/4
f 259/1/4 258/1/4 260/1/4
f 257/1/4 259/1/4 261/1/4
f 261/1/4 259/1/4 262/1/4
f 257/1/4 261/1/4 263/1/4
f 263/1/4 261/1/4 264/1/4
f 265/4/4 266/4/4 267/4/4
f 265/4/4 267/4/4 269/4/4
f 267/4/4 268/4/4 269/4/4
f 269/4/4 268/4/4 270/4/4
f 271/1/4 272/1/4 273/1/4
f 273/1/4 272/1/4 274/1/4
f 275/4/4 276/4/4 277/4/4
f 277/4/4 276/4/4 278/4/4
f 275/4/4 277/4/4 279/4/4
f 279/4/4 277/4/4 280/4/4
f 281/4/4 282/4/4 283/4/4
f 283/4/4 282/4/4 284/4/4
f 285/4/4 286/4/4 287/4/4
f 287/4/4 286/4/4 288/4/4
f 292/3/5 290/3/5 289/3/5
f 293/3/5 290/3/5 292/3/5
f 295/1/5 292/1/5 291/1/5
f 295/1/5 294/1/5 293/1/5
f 295/1/5 293/1/5 292/1/5
f 296/1/5 294/1/5 295/1/5
f 298/1/5 295/1/5 291/1/5
f 299/1/5 294/1/5 296/1/5
f 301/1/5 298/1/5 297/1/5
f 301/2/5 296/2/5 295/2/5
f 301/1/5 295/1/5 298/1/5
f 302/2/5 296/2/5 301/2/5
f 303/2/5 296/2/5 302/2/5
f 304/1/5 300/1/5 299/1/5
f 304/2/5 296/2/5 303/2/5
f 304/1/5 299/1/5 296/1/5
f 305/2/5 303/2/5 302/2/5
f 305/1/5 302/1/5 301/1/5
f 306/1/5 304/1/5 303/1/5
f 306/2/5 303/2/5 305/2/5
f 307/1/5 305/1/5 301/1/5
f 307/1/5 301/1/5 297/1/5
f 307/1/5 306/1/5 305/1/5
f 308/1/5 306/1/5 307/1/5
f 309/1/5 304/1/5 306/1/5
f 309/1/5 306/1/5 308/1/5
f 310/1/5 300/1/5 304/1/5
f 310/1/5 304/1/5 309/1/5
f 311/1/5 309/1/5 308/1/5
f 312/1/5 309/1/5 311/1/5
f 317/1/5 314/1/5 313/1/5
f 318/1/5 314/1/5 317/1/5
f 319/1/5 316/1/5 315/1/5
f 320/1/5 316/1/5 319/1/5
f 325/4/5 322/4/5 321/4/5
f 328/4/5 324/4/5 323/4/5
f 329/4/5 326/4/5 325/4/5
f 329/4/5 325/4/5 321/4/5
f 330/4/5 326/4/5 329/4/5
f 331/4/5 328/4/5 327/4/5
f 332/4/5 324/4/5 328/4/5
f 332/4/5 328/4/5 331/4/5
f 337/4/5 334/4/5 333/4/5
f 340/4/5 336/4/5 335/4/5
f 341/4/5 338/4/5 337/4/5
f 341/4/5 337/4/5 333/4/5
f 342/4/5 338/4/5 341/4/5
f 343/4/5 340/4/5 339/4/5
f 344/4/5 336/4/5 340/4/5
f 344/4/5 340/4/5 343/4/5
f 350/1/5 346/1/5 345/1/5
f 351/1/5 348/1/5 347/1/5
f 353/1/5 350/1/5 349/1/5
f 354/1/5 346/1/5 350/1/5
f 354/1/5 350/1/5 353/1/5
f 355/1/5 352/1/5 351/1/5
f 355/1/5 351/1/5 347/1/5
f 356/1/5 352/1/5 355/1/5
f 357/1/6 358/1/6 361/1/6
f 361/1/6 358/1/6 362/1/6
f 359/1/6 360/1/6 363/1/6
f 363/1/6 360/1/6 364/1/6
f 365/1/6 366/1/6 369/1/6
f 369/1/6 366/1/6 370/1/6
f 367/1/6 368/1/6 371/1/6
f 371/1/6 368/1/6 372/1/6
f 373/1/6 374/1/6 378/1/6
f 378/1/6 374/1/6 379/1/6
f 379/1/6 374/1/6 380/1/6
f 375/1/6 376/1/6 381/1/6
f 381/1/6 376/1/6 382/1/6
f 382/1/6 376/1/6 383/1/6
f 377/1/6 378/1/6 386/1/6
f 378/1/6 379/1/6 386/1/6
f 383/1/6 384/1/6 387/1/6
f 382/1/6 383/1/6 387/1/6
f 385/1/6 386/1/6 389/1/6
f 386/1/6 379/1/6 390/1/6
f 389/1/6 386/1/6 390/1/6
f 387/1/6 388/1/6 391/1/6
f 382/1/6 387/1/6 391/1/6
f 391/1/6 388/1/6 392/1/6
f 393/1/6 394/1/6 397/1/6
f 397/1/6 394/1/6 398/1/6
f 395/1/6 396/1/6 399/1/6
f 399/1/6 396/1/6 400/1/6
f 401/1/6 402/1/6 406/1/6
f 402/3/6 403/3/6 407/3/6
f 406/1/6 402/1/6 407/1/6
f 403/1/6 404/1/6 408/1/6
f 407/3/6 403/3/6 408/3/6
f 408/1/6 404/1/6 409/1/6
f 406/1/6 407/1/6 412/1/6
f 409/1/6 410/1/6 412/1/6
f 408/1/6 409/1/6 412/1/6
f 407/1/6 408/1/6 412/1/6
f 405/1/6 406/1/6 412/1/6
f 412/1/6 410/1/6 413/1/6
f 413/1/6 410/1/6 414/1/6
f 414/1/6 410/1/6 415/1/6
f 411/1/6 412/1/6 418/1/6
f 412/1/6 413/1/6 418/1/6
f 415/1/6 416/1/6 419/1/6
f 414/1/6 415/1/6 419/1/6
f 417/1/6 418/1/6 421/1/6
f 418/1/6 413/1/6 421/1/6
f 413/2/6 414/2/6 421/2/6
f 421/2/6 414/2/6 422/2/6
f 422/2/6 414/2/6 423/2/6
f 419/1/6 420/1/6 424/1/6
f 423/2/6 414/2/6 424/2/6
f 414/1/6 419/1/6 424/1/6
f 422/2/6 423/2/6 425/2/6
f 421/1/6 422/1/6 425/1/6
f 423/1/6 424/1/6 426/1/6
f 425/2/6 423/2/6 426/2/6
f 421/1/6 425/1/6 427/1/6
f 417/1/6 421/1/6 427/1/6
f 425/1/6 426/1/6 427/1/6
f 427/1/6 426/1/6 428/1/6
f 428/1/6 426/1/6 429/1/6
f 424/1/6 420/1/6 430/1/6
f 429/1/6 426/1/6 430/1/6
f 426/1/6 424/1/6 430/1/6
f 430/1/6 420/1/6 431/1/6
f 431/1/6 420/1/6 432/1/6
f 427/4/6 428/4/6 434/4/6
f 429/1/6 430/1/6 435/1/6
f 435/1/6 430/1/6 436/1/6
f 436/1/6 430/1/6 437/1/6
f 437/1/6 430/1/6 438/1/6
f 431/4/6 432/4/6 439/4/6
f 436/1/6 437/1/6 441/1/6
f 441/1/6 437/1/6 442/1/6
f 442/1/6 437/1/6 443/1/6
f 443/1/6 437/1/6 444/1/6
f 433/4/6 434/4/6 445/4/6
f 434/4/6 428/4/6 445/4/6
f 445/4/6 428/4/6 446/4/6
f 442/1/6 443/1/6 447/1/6
f 447/1/6 443/1/6 448/1/6
f 431/4/6 439/4/6 449/4/6
f 439/4/6 440/4/6 449/4/6
f 449/4/6 440/4/6 450/4/6
f 433/4/6 445/4/6 451/4/6
f 451/4/6 445/4/6 452/4/6
f 450/4/6 440/4/6 453/4/6
f 453/4/6 440/4/6 454/4/6
